<?xml version="1.0" encoding="UTF-8"?>
<svg xmlns="http://www.w3.org/2000/svg" xmlns:xlink="http://www.w3.org/1999/xlink" width="20pt" height="20pt" viewBox="0 0 20 20" version="1.1">
<g id="surface1">
<path style="fill:none;stroke-width:2;stroke-linecap:butt;stroke-linejoin:miter;stroke:rgb(0%,0%,0%);stroke-opacity:1;stroke-miterlimit:10;" d="M 9 9.998437 L 5.001562 9.998437 C 4.448437 9.998437 3.998437 9.553125 3.998437 9 L 3.998437 5.001562 C 3.998437 4.448437 4.448437 3.998437 5.001562 3.998437 L 9 3.998437 C 9.553125 3.998437 9.998437 4.448437 9.998437 5.001562 L 9.998437 9 C 9.998437 9.553125 9.553125 9.998437 9 9.998437 Z M 18.998437 9.998437 L 15 9.998437 C 14.446875 9.998437 14.001563 9.553125 14.001563 9 L 14.001563 5.001562 C 14.001563 4.448437 14.446875 3.998437 15 3.998437 L 18.998437 3.998437 C 19.551562 3.998437 20.001562 4.448437 20.001562 5.001562 L 20.001562 9 C 20.001562 9.553125 19.551562 9.998437 18.998437 9.998437 Z M 9 20.001562 L 5.001562 20.001562 C 4.448437 20.001562 3.998437 19.551562 3.998437 18.998437 L 3.998437 15 C 3.998437 14.446875 4.448437 14.001563 5.001562 14.001563 L 9 14.001563 C 9.553125 14.001563 9.998437 14.446875 9.998437 15 L 9.998437 18.998437 C 9.998437 19.551562 9.553125 20.001562 9 20.001562 Z M 18.998437 20.001562 L 15 20.001562 C 14.446875 20.001562 14.001563 19.551562 14.001563 18.998437 L 14.001563 15 C 14.001563 14.446875 14.446875 14.001563 15 14.001563 L 18.998437 14.001563 C 19.551562 14.001563 20.001562 14.446875 20.001562 15 L 20.001562 18.998437 C 20.001562 19.551562 19.551562 20.001562 18.998437 20.001562 Z M 18.998437 20.001562 " transform="matrix(0.833333,0,0,0.833333,0,0)"/>
</g>
</svg>
